PathFileType  4	(X/Y/Z) C:\Users\antoi\Documents\MyRepositories\mobilecap\ResultsAnalysis
DataRate	CameraRate	NumFrames	NumMarkers	Units	OrigDataRate	OrigDataStartFrame	OrigNumFrames
100.0	100.0	4	51	mm	100.0	98	260
Frame#	Time	r_knee			r_shank_antsup			r_ankle			r_calc			r_5meta			r_toe			L_knee			L_shank_antsup			L_ankle			L_calc			L_5meta			L_toe			r_sh2			r_sh3			r_sh4			L_sh2			L_sh3			r_thigh1			r_thigh2			r_thigh3			r_thigh4			r_thigh5			L_thigh1			L_thigh2			L_thigh3			L_thigh4			r.ASIS			r.PSIS			L.ASIS			L.PSIS			C7			R_Shoulder			L_Shoulder			R_Sternum			L_Sternum			R_humerus			R_elbow_med			R_elbow_lat			R_forearm			R_wrist_radius			R_wrist_ulna			L_humerus			L_elbow_med			L_elbow_lat			L_forearm			L_wrist_radius			L_wrist_ulna			R_HJC			L_HJC			R_HJC_reg			L_HJC_reg			
		X1	Y1	Z1	X2	Y2	Z2	X3	Y3	Z3	X4	Y4	Z4	X5	Y5	Z5	X6	Y6	Z6	X7	Y7	Z7	X8	Y8	Z8	X9	Y9	Z9	X10	Y10	Z10	X11	Y11	Z11	X12	Y12	Z12	X13	Y13	Z13	X14	Y14	Z14	X15	Y15	Z15	X16	Y16	Z16	X17	Y17	Z17	X18	Y18	Z18	X19	Y19	Z19	X20	Y20	Z20	X21	Y21	Z21	X22	Y22	Z22	X23	Y23	Z23	X24	Y24	Z24	X25	Y25	Z25	X26	Y26	Z26	X27	Y27	Z27	X28	Y28	Z28	X29	Y29	Z29	X30	Y30	Z30	X31	Y31	Z31	X32	Y32	Z32	X33	Y33	Z33	X34	Y34	Z34	X35	Y35	Z35	X36	Y36	Z36	X37	Y37	Z37	X38	Y38	Z38	X39	Y39	Z39	X40	Y40	Z40	X41	Y41	Z41	X42	Y42	Z42	X43	Y43	Z43	X44	Y44	Z44	X45	Y45	Z45	X46	Y46	Z46	X47	Y47	Z47	X48	Y48	Z48	X49	Y49	Z49	X50	Y50	Z50	X51	Y51	Z51	

98	0.97000000	-976.75570	745.28062	-444.89537	-988.32644	642.49670	-455.31059	-1246.78116	440.75048	-473.30292	-1317.01351	425.25134	-522.55936	-1156.61037	351.29847	-427.63784	-1114.05501	370.52648	-480.08690	-959.77504	752.48922	-730.24331	-965.39352	654.07478	-715.56907	-1229.32136	445.43009	-706.63361	-1312.82143	431.38899	-656.27764	-1157.30893	351.77366	-745.27122	-1102.49743	363.59647	-691.74837	-1063.37049	556.79974	-461.12028	-1039.10850	681.32911	-414.76085	-1120.05068	600.85635	-418.06635	-1018.56073	713.77745	-757.02706	-1101.26647	623.55371	-759.07772	-944.16987	1025.16804	-407.11021	-924.99506	916.84788	-425.55250	-977.97502	880.33124	-399.54525	-1055.43056	1003.97159	-400.05768	-1030.61326	891.46538	-417.70802	-909.95229	1005.25413	-744.37022	-886.47131	868.27230	-724.29004	-1013.72886	984.04897	-775.89725	-991.07891	854.76655	-750.87392	-912.42692	1195.14253	-446.34519	-1098.42659	1281.82366	-536.14311	-901.34763	1202.51660	-700.28625	-1090.83075	1283.75775	-631.17348	-923.43030	1713.46842	-552.49844	-851.11213	1691.79329	-412.44290	-835.71961	1686.68680	-673.85567	-818.74751	1611.58505	-524.02278	-814.25467	1615.40520	-569.89945	-749.65049	1639.83435	-374.92348	-631.05620	1459.74641	-374.24470	-617.44576	1492.24439	-314.31449	-560.66379	1556.40956	-349.32399	-463.24472	1626.84268	-463.80925	-431.59439	1600.57893	-435.97115	-735.79052	1647.42674	-721.55595	-603.52164	1494.51046	-732.01570	-589.33683	1551.40024	-792.18009	-547.11510	1600.06964	-747.38365	-437.69172	1647.90685	-618.98137	-409.57810	1644.91220	-663.07214	-1014.14218	1133.25409	-479.87236	-1002.39794	1138.56764	-668.99621	-1003.29271	1141.25045	-490.66833	-989.92488	1144.65317	-657.92761	
99	0.98000000	-969.23146	756.67310	-442.25078	-981.19576	653.78468	-451.88499	-1238.26891	449.75826	-471.77794	-1308.28570	439.82282	-521.07639	-1154.56103	352.83848	-427.30916	-1110.40649	370.23600	-479.19381	-957.48002	763.98553	-730.87124	-962.66695	665.20461	-716.16832	-1222.86499	452.08951	-707.93084	-1306.48683	442.13277	-657.47194	-1155.33816	353.73808	-745.47364	-1100.50095	363.16050	-691.79010	-1055.90243	567.65558	-458.10677	-1032.58300	692.57827	-412.24625	-1112.66958	611.71142	-416.03301	-1016.74070	724.42635	-757.66761	-1098.34911	633.18726	-759.41976	-929.47586	1036.29265	-407.06798	-912.48665	927.41430	-424.37429	-966.30347	892.03730	-398.02319	-1041.13755	1017.25590	-399.26480	-1018.66354	904.29904	-416.09912	-897.23576	1015.20457	-743.45123	-879.45102	877.25446	-724.19326	-1001.63672	998.22258	-775.67034	-984.23260	867.95662	-751.42560	-895.82664	1210.03081	-446.88650	-1083.87981	1292.58523	-536.01094	-884.70951	1218.78683	-699.00895	-1076.06553	1294.84755	-631.35341	-919.10126	1727.17248	-552.70808	-848.18915	1708.52593	-413.32556	-832.02979	1702.23674	-673.47148	-811.93186	1625.71993	-523.47500	-807.73815	1631.43054	-568.97144	-746.24683	1658.55373	-374.01382	-625.17203	1478.86516	-369.03573	-612.52185	1513.00125	-309.31463	-557.45189	1578.37215	-345.63145	-461.76158	1649.10132	-461.65317	-429.21293	1624.34222	-433.20363	-732.46581	1666.01222	-721.86576	-596.99813	1515.38466	-737.35333	-584.69393	1573.87886	-796.27600	-543.83274	1622.74377	-751.34179	-435.51766	1673.19620	-623.05670	-407.71080	1672.03303	-667.24655	-996.07608	1145.83886	-480.13217	-983.99454	1152.14907	-669.20426	-985.26378	1154.98528	-491.18309	-971.65553	1158.92445	-657.23919	
100	0.99000000	-959.54125	769.25278	-439.85296	-971.90089	666.07465	-448.65369	-1227.80040	460.00497	-469.71310	-1297.01696	456.35252	-519.42389	-1151.59574	355.31216	-426.64394	-1106.02635	370.03315	-478.26958	-953.57760	776.99965	-731.24117	-957.99626	677.84009	-716.82610	-1214.32358	460.11436	-709.18317	-1298.12678	455.09827	-658.80347	-1152.74212	356.49436	-745.58529	-1097.72945	362.89792	-691.80005	-1046.11516	579.81192	-455.31662	-1023.70236	705.20535	-409.70827	-1103.76234	623.83963	-413.77466	-1012.81007	736.67645	-758.27585	-1093.43506	644.53651	-759.79260	-914.13227	1048.57267	-407.08705	-898.67575	939.25596	-423.19990	-952.97088	904.72530	-396.56034	-1025.91400	1030.93782	-398.23153	-1005.15468	917.78845	-414.39580	-884.14643	1026.41631	-742.27033	-870.79589	887.75951	-723.76143	-988.73683	1013.04270	-775.42731	-975.86766	882.09993	-751.48445	-879.83780	1225.44189	-447.55873	-1069.40103	1304.16820	-535.86417	-868.69507	1235.34363	-698.37858	-1061.51222	1306.72790	-631.46945	-914.30098	1741.07559	-552.65357	-845.16181	1724.84454	-414.00492	-828.16701	1717.84273	-673.57611	-806.32547	1640.90402	-523.06761	-801.20159	1647.45068	-568.14065	-742.78747	1677.04238	-372.87770	-619.60379	1497.33879	-363.44138	-607.93943	1533.08455	-303.96390	-554.41012	1599.16916	-342.14889	-459.46629	1669.65093	-458.93468	-426.41728	1646.39245	-429.92836	-729.27905	1684.14778	-722.14527	-590.83700	1534.20371	-745.01664	-580.47900	1595.07512	-800.27353	-540.48136	1643.99190	-755.28198	-433.07709	1696.78027	-627.54454	-405.69706	1697.11715	-671.70896	-978.53692	1159.14472	-480.51612	-966.37975	1166.36477	-669.55032	-967.88523	1169.25156	-491.77754	-954.25105	1173.67609	-656.98946	
101	1.00000000	-947.57666	782.66777	-437.65611	-960.42771	679.17316	-445.64596	-1214.83469	471.29420	-467.49487	-1282.87736	474.65251	-517.62723	-1147.54032	358.56614	-426.09769	-1100.84200	370.23909	-477.21488	-947.47491	791.02137	-731.49591	-951.02359	691.64121	-717.99544	-1203.77543	469.24845	-710.54759	-1287.37465	469.88401	-660.24553	-1149.44462	359.88068	-745.59218	-1094.13454	362.96519	-692.00877	-1033.99658	592.81064	-452.42114	-1012.51187	718.81805	-407.44440	-1092.99756	637.22606	-411.45090	-1006.58235	750.12163	-758.75215	-1086.34908	657.28980	-760.24676	-898.49884	1061.59383	-406.95643	-883.88014	952.02084	-421.91386	-938.36099	918.07656	-394.96968	-1010.23611	1044.66982	-396.64295	-990.46106	931.37916	-412.67007	-870.91236	1038.61557	-741.29144	-860.77422	899.63042	-723.25095	-975.33360	1028.00811	-775.60729	-965.98833	896.63745	-751.39525	-864.91045	1240.90013	-447.98678	-1055.17551	1316.46854	-535.68932	-853.50998	1251.68967	-698.24615	-1047.30457	1319.27030	-631.63907	-908.77433	1754.85551	-552.47300	-841.79736	1740.57529	-414.10133	-823.83986	1733.19260	-674.11251	-801.33748	1657.20470	-522.46814	-794.25977	1663.26981	-567.31689	-739.12624	1695.20067	-371.37028	-614.18499	1515.05216	-357.47854	-603.46332	1552.33209	-298.25768	-551.17955	1618.68382	-338.42905	-456.17343	1688.39854	-455.54450	-423.01791	1666.62885	-426.14228	-725.94554	1701.74558	-722.60109	-585.05233	1551.52599	-752.76372	-576.46895	1614.70448	-804.26009	-536.78267	1663.75594	-759.86080	-430.31021	1718.67025	-632.42472	-403.30454	1720.06648	-676.76704	-962.10078	1172.89318	-480.90524	-949.88362	1180.86288	-669.90549	-951.66896	1183.68936	-492.14136	-938.14233	1188.50441	-657.01360	
